<svg width="161" height="45" viewBox="0 0 161 45" fill="none" xmlns="http://www.w3.org/2000/svg">
<g id="Group 113">
<circle id="Ellipse 14" cx="138.333" cy="22.5" r="22.5" fill="#F7F7F7"/>
<ellipse id="Ellipse 15" cx="80.4168" cy="22.5" rx="22.0833" ry="22.5" fill="#FF0000"/>
<circle id="Ellipse 16" cx="22.5" cy="22.5" r="22.5" fill="#F7F7F7"/>
<path id="Vector" d="M140.357 16.9887H142V14.1267C141.717 14.0878 140.742 14 139.606 14C137.237 14 135.614 15.4902 135.614 18.2292V20.75H133V23.9495H135.614V32H138.82V23.9503H141.328L141.726 20.7508H138.819V18.5465C138.82 17.6217 139.068 16.9887 140.357 16.9887Z" fill="black"/>
<g id="Group">
<path id="Vector_2" d="M32 16.7316C31.3306 17.0252 30.6174 17.2199 29.8737 17.3144C30.6388 16.8576 31.2226 16.1399 31.4971 15.2747C30.7839 15.7 29.9964 16.0004 29.1571 16.168C28.4799 15.4469 27.5146 15.0002 26.4616 15.0002C24.4186 15.0002 22.7739 16.6585 22.7739 18.6914C22.7739 18.9839 22.7986 19.2651 22.8594 19.5329C19.7915 19.3832 17.0769 17.9129 15.2533 15.673C14.9349 16.2254 14.7481 16.8576 14.7481 17.5382C14.7481 18.8162 15.4062 19.9491 16.3872 20.605C15.7944 20.5937 15.2127 20.4216 14.72 20.1505C14.72 20.1617 14.72 20.1764 14.72 20.191C14.72 21.9842 15.9991 23.4737 17.6765 23.8169C17.3761 23.899 17.0487 23.9384 16.709 23.9384C16.4727 23.9384 16.2342 23.9249 16.0104 23.8754C16.4885 25.3367 17.8453 26.4111 19.4585 26.446C18.203 27.4281 16.6089 28.0199 14.8831 28.0199C14.5805 28.0199 14.2902 28.0064 14 27.9692C15.6346 29.0234 17.5719 29.6252 19.661 29.6252C26.4515 29.6252 30.164 24.0002 30.164 19.1245C30.164 18.9614 30.1584 18.8039 30.1505 18.6475C30.8829 18.1277 31.4982 17.4786 32 16.7316Z" fill="black"/>
</g>
<path id="Vector_3" d="M77.3333 31H74V19.1H77.3333V31ZM77.3333 17.4H74V14H77.3333V17.4ZM89 31H85.6667V24.2C85.6667 23.2628 84.9188 22.5 84 22.5C83.0812 22.5 82.3333 23.2628 82.3333 24.2V31H79V19.1H82.3333V19.7408C83.2066 19.4639 83.7739 19.1 84.8333 19.1C87.094 19.1024 89 21.171 89 23.6156V31Z" fill="#F6F3F2"/>
</g>
</svg>
