<svg width="46" height="46" viewBox="0 0 46 46" fill="none" xmlns="http://www.w3.org/2000/svg">
<g id="Group 114">
<circle id="Ellipse 16" cx="23" cy="23" r="23" fill="#F7F7F7"/>
<path id="Vector" d="M19.5712 23.0569C20.2941 24.5348 21.492 25.7273 22.9731 26.4434C23.0815 26.4948 23.2013 26.517 23.3209 26.508C23.4405 26.4989 23.5557 26.4589 23.6551 26.3918L25.8359 24.9376C25.9324 24.8733 26.0433 24.834 26.1588 24.8234C26.2742 24.8128 26.3905 24.8312 26.497 24.8768L30.577 26.6254C30.7156 26.6843 30.8313 26.7866 30.9067 26.9169C30.9821 27.0473 31.0131 27.1986 30.995 27.3481C30.866 28.3572 30.3737 29.2847 29.6101 29.9569C28.8466 30.6291 27.8642 30.9999 26.8469 31C23.7049 31 20.6916 29.7518 18.4699 27.5301C16.2482 25.3084 15 22.2951 15 19.1531C15.0001 18.1358 15.3709 17.1534 16.0431 16.3899C16.7153 15.6263 17.6428 15.134 18.6519 15.005C18.8014 14.9869 18.9527 15.0179 19.0831 15.0933C19.2134 15.1687 19.3157 15.2844 19.3746 15.423L21.1247 19.5065C21.17 19.6121 21.1884 19.7273 21.1784 19.8418C21.1684 19.9563 21.1302 20.0665 21.0673 20.1626L19.6181 22.3769C19.5521 22.4766 19.5131 22.5916 19.5049 22.7108C19.4967 22.8299 19.5195 22.9492 19.5712 23.0569V23.0569Z" stroke="black" stroke-width="2" stroke-linecap="round" stroke-linejoin="round"/>
</g>
</svg>
